<svg width="17" height="17" viewBox="0 0 17 17" fill="none" xmlns="http://www.w3.org/2000/svg">
<path d="M8.5 17C3.8 17 0 13.2 0 8.5C0 3.8 3.8 0 8.5 0C13.2 0 17 3.8 17 8.5C17 13.2 13.2 17 8.5 17ZM8.5 1C4.35 1 1 4.35 1 8.5C1 12.65 4.35 16 8.5 16C12.65 16 16 12.65 16 8.5C16 4.35 12.65 1 8.5 1Z" fill="#0078E7"/>
<path d="M12.1415 4.151L12.8485 4.8585L4.85849 12.8485L4.15149 12.1415L12.1415 4.151Z" fill="#0078E7"/>
<path d="M4.85849 4.151L12.8485 12.141L12.1415 12.8485L4.15149 4.8585L4.85849 4.151Z" fill="#0078E7"/>
</svg>
