<svg width="14" height="14" viewBox="0 0 14 14" fill="none" xmlns="http://www.w3.org/2000/svg">
<path fill-rule="evenodd" clip-rule="evenodd" d="M14 7C14 8.85652 13.2625 10.637 11.9497 11.9497C10.637 13.2625 8.85652 14 7 14C5.14348 14 3.36301 13.2625 2.05025 11.9497C0.737498 10.637 0 8.85652 0 7C0 5.14348 0.737498 3.36301 2.05025 2.05025C3.36301 0.737498 5.14348 0 7 0C8.85652 0 10.637 0.737498 11.9497 2.05025C13.2625 3.36301 14 5.14348 14 7V7ZM5.777 10.482L10.376 7.416C10.4445 7.37034 10.5006 7.30848 10.5395 7.23591C10.5783 7.16334 10.5986 7.08231 10.5986 7C10.5986 6.91769 10.5783 6.83666 10.5395 6.76409C10.5006 6.69152 10.4445 6.62966 10.376 6.584L5.777 3.518C5.70171 3.4679 5.61423 3.43915 5.52389 3.43483C5.43355 3.43051 5.34373 3.45077 5.264 3.49346C5.18427 3.53615 5.1176 3.59966 5.07111 3.67724C5.02462 3.75482 5.00005 3.84356 5 3.934V10.066C5.00005 10.1564 5.02462 10.2452 5.07111 10.3228C5.1176 10.4003 5.18427 10.4639 5.264 10.5065C5.34373 10.5492 5.43355 10.5695 5.52389 10.5652C5.61423 10.5608 5.70171 10.5321 5.777 10.482V10.482Z" fill="#D3D3D3"/>
</svg>
