<svg width="16" height="14" viewBox="0 0 16 14" fill="none" xmlns="http://www.w3.org/2000/svg">
<path d="M9.805 3.5H14.115L12.465 5.15C12.4184 5.19629 12.3813 5.25131 12.356 5.31192C12.3306 5.37252 12.3175 5.43753 12.3172 5.50323C12.3168 5.63591 12.369 5.76335 12.4625 5.8575C12.5088 5.90412 12.5638 5.94116 12.6244 5.96652C12.685 5.99187 12.75 6.00504 12.8157 6.00528C12.9484 6.00575 13.0758 5.95349 13.17 5.86L16 3.04L15.645 2.685L13.17 0.214999C13.0758 0.12151 12.9484 0.0692517 12.8157 0.0697205C12.6831 0.0701894 12.556 0.123347 12.4625 0.217499C12.369 0.31165 12.3168 0.439084 12.3172 0.571766C12.3177 0.704448 12.3708 0.83151 12.465 0.924999L14.055 2.5H9.5C9.41274 2.50053 9.32714 2.52388 9.25171 2.56774C9.17627 2.61159 9.11363 2.67443 9.07 2.75L7.75 5.045L8.33 6.045L9.805 3.5Z" fill="#767676"/>
<path d="M4.535 10.535H0.5C0.367392 10.535 0.240215 10.5877 0.146447 10.6814C0.0526784 10.7752 0 10.9024 0 11.035C0 11.1676 0.0526784 11.2948 0.146447 11.3886C0.240215 11.4823 0.367392 11.535 0.5 11.535H4.825C4.91226 11.5345 4.99786 11.5111 5.07329 11.4673C5.14873 11.4234 5.21137 11.3606 5.255 11.285L6.59 9L6 8L4.535 10.535Z" fill="#767676"/>
<path d="M13.17 8.085C13.0758 7.99151 12.9484 7.93925 12.8157 7.93972C12.6831 7.94019 12.556 7.99335 12.4625 8.0875C12.369 8.18165 12.3168 8.30909 12.3172 8.44177C12.3177 8.57445 12.3708 8.70151 12.465 8.795L14.215 10.545H9.805L5.255 2.765C5.21137 2.68943 5.14873 2.62659 5.07329 2.58274C4.99786 2.53888 4.91226 2.51553 4.825 2.515H0.5C0.367392 2.515 0.240215 2.56768 0.146447 2.66145C0.0526784 2.75521 0 2.88239 0 3.015C0 3.14761 0.0526784 3.27478 0.146447 3.36855C0.240215 3.46232 0.367392 3.515 0.5 3.515H4.535L9.085 11.29C9.12863 11.3656 9.19127 11.4284 9.26671 11.4723C9.34214 11.5161 9.42774 11.5395 9.515 11.54H13.95L12.45 13.04C12.4034 13.0863 12.3663 13.1413 12.341 13.2019C12.3156 13.2625 12.3025 13.3275 12.3022 13.3932C12.302 13.4589 12.3147 13.524 12.3396 13.5848C12.3646 13.6456 12.4012 13.7009 12.4475 13.7475C12.4938 13.7941 12.5488 13.8312 12.6094 13.8565C12.67 13.8819 12.735 13.895 12.8007 13.8953C12.8664 13.8955 12.9315 13.8828 12.9923 13.8579C13.0531 13.8329 13.1084 13.7963 13.155 13.75L15.63 11.28L15.985 10.925L13.17 8.085Z" fill="#767676"/>
</svg>
