<svg width="16" height="14" viewBox="0 0 16 14" fill="none" xmlns="http://www.w3.org/2000/svg">
<path d="M9.805 3.50001H14.115L12.465 5.15001C12.4184 5.1963 12.3813 5.25132 12.356 5.31193C12.3306 5.37254 12.3175 5.43755 12.3172 5.50325C12.3168 5.63593 12.369 5.76336 12.4625 5.85751C12.5088 5.90413 12.5638 5.94118 12.6244 5.96653C12.685 5.99189 12.75 6.00506 12.8157 6.00529C12.9484 6.00576 13.0758 5.9535 13.17 5.86001L16 3.04001L15.645 2.68501L13.17 0.215014C13.0758 0.121525 12.9484 0.069267 12.8157 0.0697358C12.6831 0.0702046 12.556 0.123362 12.4625 0.217514C12.369 0.311666 12.3168 0.4391 12.3172 0.571782C12.3177 0.704464 12.3708 0.831525 12.465 0.925014L14.055 2.50001H9.5C9.41274 2.50054 9.32714 2.52389 9.25171 2.56775C9.17627 2.61161 9.11363 2.67444 9.07 2.75001L7.75 5.04501L8.33 6.04501L9.805 3.50001Z" fill="#0078E7"/>
<path d="M4.535 10.535H0.5C0.367392 10.535 0.240215 10.5877 0.146447 10.6814C0.0526784 10.7752 0 10.9024 0 11.035C0 11.1676 0.0526784 11.2948 0.146447 11.3886C0.240215 11.4823 0.367392 11.535 0.5 11.535H4.825C4.91226 11.5345 4.99786 11.5111 5.07329 11.4673C5.14873 11.4234 5.21137 11.3606 5.255 11.285L6.59 9L6 8L4.535 10.535Z" fill="#0078E7"/>
<path d="M13.17 8.08501C13.0758 7.99153 12.9484 7.93927 12.8157 7.93974C12.6831 7.94021 12.556 7.99336 12.4625 8.08751C12.369 8.18167 12.3168 8.3091 12.3172 8.44178C12.3177 8.57446 12.3708 8.70153 12.465 8.79501L14.215 10.545H9.805L5.255 2.76501C5.21137 2.68945 5.14873 2.62661 5.07329 2.58275C4.99786 2.53889 4.91226 2.51554 4.825 2.51501H0.5C0.367392 2.51501 0.240215 2.56769 0.146447 2.66146C0.0526784 2.75523 0 2.88241 0 3.01501C0 3.14762 0.0526784 3.2748 0.146447 3.36857C0.240215 3.46234 0.367392 3.51501 0.5 3.51501H4.535L9.085 11.29C9.12863 11.3656 9.19127 11.4284 9.26671 11.4723C9.34214 11.5161 9.42774 11.5395 9.515 11.54H13.95L12.45 13.04C12.4034 13.0863 12.3663 13.1413 12.341 13.2019C12.3156 13.2625 12.3025 13.3276 12.3022 13.3932C12.302 13.4589 12.3147 13.524 12.3396 13.5848C12.3646 13.6456 12.4012 13.7009 12.4475 13.7475C12.4938 13.7941 12.5488 13.8312 12.6094 13.8565C12.67 13.8819 12.735 13.8951 12.8007 13.8953C12.8664 13.8955 12.9315 13.8828 12.9923 13.8579C13.0531 13.833 13.1084 13.7963 13.155 13.75L15.63 11.28L15.985 10.925L13.17 8.08501Z" fill="#0078E7"/>
</svg>
