<svg width="14" height="14" viewBox="0 0 14 14" fill="none" xmlns="http://www.w3.org/2000/svg">
<path d="M12.58 3.04001L11.815 3.68501C12.6009 4.61598 13.0199 5.80187 12.9932 7.01992C12.9665 8.23798 12.496 9.40437 11.67 10.3L12.405 11C13.3968 9.92525 13.962 8.52523 13.9942 7.06311C14.0264 5.60098 13.5235 4.17743 12.58 3.06001V3.04001Z" fill="#0078E7"/>
<path d="M9.79001 5.00001C10.2614 5.55902 10.5124 6.27097 10.4959 7.00203C10.4793 7.7331 10.1963 8.43294 9.70001 8.97001L10.435 9.65001C11.0965 8.93319 11.4732 7.9994 11.4944 7.02427C11.5155 6.04914 11.1797 5.09987 10.55 4.35501L9.79001 5.00001Z" fill="#0078E7"/>
<path d="M8 14C7.93385 13.9997 7.86841 13.9863 7.80747 13.9606C7.74653 13.9348 7.69131 13.8972 7.645 13.85L3.835 10H0.5C0.367392 10 0.240215 9.94733 0.146447 9.85356C0.0526784 9.75979 0 9.63261 0 9.5V4.5C0 4.3674 0.0526784 4.24022 0.146447 4.14645C0.240215 4.05268 0.367392 4 0.5 4H3.835L7.645 0.150005C7.73868 0.056879 7.86541 0.00460815 7.9975 0.00460815C8.12959 0.00460815 8.25632 0.056879 8.35 0.150005C8.44421 0.24232 8.49812 0.36812 8.5 0.500005V13.5C8.5 13.6326 8.44732 13.7598 8.35355 13.8536C8.25979 13.9473 8.13261 14 8 14ZM1 9H4.04C4.10615 9.00028 4.17159 9.01368 4.23253 9.03943C4.29347 9.06518 4.34869 9.10276 4.395 9.15L7.5 12.285V1.715L4.395 4.85C4.34869 4.89725 4.29347 4.93483 4.23253 4.96058C4.17159 4.98633 4.10615 4.99973 4.04 5H1V9Z" fill="#0078E7"/>
</svg>
